<svg width="28" height="15" viewBox="0 0 28 15" fill="none" xmlns="http://www.w3.org/2000/svg">
<path d="M13.2818 8.76243V9.98895H7.61878V14.3481H6.16022V9.98895H0.519337V8.76243H13.2818ZM1.26519 6.61326C3.92265 6.27624 6.06077 4.79006 6.1547 3.21547H1.72376V2.0221H6.16022V0.325967H7.61878V2.0221H12.0663V3.21547H7.64088C7.72376 4.77901 9.83978 6.27624 12.5083 6.61326L11.9669 7.79558C9.71823 7.48619 7.80663 6.43094 6.90055 5C5.98895 6.44751 4.06077 7.48066 1.80663 7.79558L1.26519 6.61326ZM25.2535 0.325967V5.90608H27.4248V7.14917H25.2535V14.3094H23.7674V0.325967H25.2535ZM14.353 10.5801C17.8668 8.82873 19.7674 6.29834 20.0823 3.03315H15.0546V1.80663H21.5906C21.5795 5.8453 19.795 9.45856 15.1817 11.7293L14.353 10.5801Z" fill="#181818"/>
</svg>
